<?xml version="1.0" encoding="UTF-8" standalone="no"?>
<svg
   width="1000"
   height="300"
   viewBox="0 0 1000 300"
   version="1.1"
   id="svg1"
   xmlns="http://www.w3.org/2000/svg"
   xmlns:svg="http://www.w3.org/2000/svg">
  <defs
     id="defs1" />
  <rect
     width="1000"
     height="300"
     fill="#0f172a"
     id="rect1" />
  <g
     id="text1"
     style="font-weight:900;font-size:200px;font-family:Outfit;letter-spacing:-10;text-anchor:middle;fill:#ffffff"
     aria-label="models.">
    <path
       d="m 166.59975,221 v -98.4 h 39.2 V 221 Z m 60.6,0 v -56.4 q 0,-5 -3,-7.8 -3,-3 -7.6,-3 -3.2,0 -5.8,1.4 -2.4,1.2 -3.8,3.6 -1.2,2.4 -1.2,5.8 l -15.2,-5.6 q 0,-12 5.2,-20.6 5.4,-8.6 14.4,-13.2 9,-4.6 20.4,-4.6 10,0 18,4.8 8.2,4.8 13,13.4 4.8,8.4 4.8,20 V 221 Z m 60.6,0 v -56.4 q 0,-5 -3,-7.8 -3,-3 -7.6,-3 -3.2,0 -5.8,1.4 -2.4,1.2 -3.8,3.6 -1.2,2.4 -1.2,5.8 l -23,0.2 q 0,-13.8 5.4,-23.6 5.6,-10 15.4,-15.2 9.8,-5.4 22.4,-5.4 11.8,0 20.8,5 9.2,5 14.4,14.4 5.2,9.4 5.2,22.6 V 221 Z m 95.40004,2.4 q -16.2,0 -29,-6.6 -12.6,-6.8 -20,-18.6 -7.2,-11.8 -7.2,-26.6 0,-14.8 7.2,-26.4 7.2,-11.6 19.8,-18.2 12.8,-6.8 29,-6.8 16.2,0 28.8,6.8 12.6,6.6 19.8,18.2 7.4,11.6 7.4,26.4 0,14.8 -7.2,26.6 -7.2,11.8 -19.8,18.6 -12.6,6.6 -28.8,6.6 z m -0.2,-34.4 q 5,0 8.6,-2 3.8,-2.2 5.8,-6 2,-4 2,-9.2 0,-5.2 -2.2,-9 -2,-4 -5.6,-6 -3.6,-2.2 -8.6,-2.2 -4.8,0 -8.6,2.2 -3.6,2.2 -5.8,6.2 -2,3.8 -2,9 0,5 2,9 2.2,3.8 5.8,6 3.8,2 8.6,2 z m 100.79987,34 q -14.6,0 -25.6,-6.6 -10.8,-6.6 -17,-18 -6,-11.6 -6,-26.6 0,-15 6,-26.6 6.2,-11.6 17,-18 11,-6.6 25.6,-6.6 8.8,0 16.6,3 7.8,2.8 13.2,8 5.6,5.2 7,12 V 198 q -1.4,6.8 -7,12.6 -5.4,5.6 -13.2,9 -7.8,3.4 -16.6,3.4 z m 7.2,-34.4 q 5,0 8.6,-2 3.6,-2.2 5.6,-6 2.2,-3.8 2.2,-8.8 0,-5 -2,-8.6 -2,-3.8 -5.8,-6 -3.6,-2.2 -8.4,-2.2 -4.8,0 -8.6,2.2 -3.6,2.2 -5.8,6 -2.2,3.8 -2.2,8.6 0,4.8 2,8.6 2.2,3.8 6,6 3.8,2.2 8.4,2.2 z m 53.4,32.4 h -38.2 v -26.4 l 5.4,-24 -6.4,-23.8 V 74.6 h 39.2 z m 60.00012,2.4 q -17.2,0 -30.2,-6.4 -13,-6.6 -20.4,-18.2 -7.2,-11.8 -7.2,-27 0,-15 7,-26.6 7.2,-11.6 19.6,-18.2 12.4,-6.8 28,-6.8 15.4,0 27.2,6.4 11.8,6.2 18.4,17.4 6.8,11.2 6.8,25.6 0,3 -0.4,6.4 -0.2,3.2 -1.2,7.6 l -88.8,0.6 v -24 l 74.2,-0.6 -18.2,10.6 q 0,-8 -2,-13 -1.8,-5.2 -5.6,-7.8 -3.8,-2.6 -9.6,-2.6 -6,0 -10.4,3 -4.4,3 -6.8,8.6 -2.2,5.6 -2.2,13.6 0,8.2 2.4,13.8 2.6,5.4 7.4,8.2 4.8,2.8 12,2.8 7,0 12.2,-2.2 5.4,-2.4 9.8,-7.4 l 19.6,19.4 q -7.4,8.4 -17.8,12.6 -10.4,4.2 -23.8,4.2 z M 655.39995,221 V 74.6 h 39.2 V 221 Z m 87.20021,3 q -9.2,0 -18.4,-2.4 -9.2,-2.4 -17.2,-6.6 -7.8,-4.2 -13.2,-9.6 l 20.6,-21.2 q 4.8,4.8 11.4,7.6 6.8,2.8 14.2,2.8 3.4,0 5.2,-0.8 2,-1 2,-2.6 0,-2.8 -3.4,-4.2 -3.2,-1.4 -8.4,-2.6 -5,-1.2 -10.8,-3 -5.6,-2 -10.8,-5.2 -5.2,-3.4 -8.4,-9.2 -3.2,-6 -3.2,-15.2 0,-9.4 5.2,-16.6 5.4,-7.4 15,-11.6 9.8,-4.4 22.6,-4.4 13,0 25.2,4.4 12.2,4.4 19.4,13.2 l -20.8,21.2 q -5,-5.6 -11,-7.4 -6,-2 -10,-2 -3.8,0 -5.4,1.2 -1.4,1 -1.4,2.6 0,2.2 3.2,3.6 3.2,1.4 8.2,2.6 5.2,1.2 10.8,3.2 5.6,2 10.6,5.6 5.2,3.6 8.4,9.6 3.2,5.8 3.2,15.2 0,14.6 -11.6,23.2 -11.6,8.6 -31.2,8.6 z"
       id="path1" />
    <path
       style="fill:#22d3ee"
       d="m 812.00028,223.4 q -9.4,0 -15.6,-6.4 -6.2,-6.4 -6.2,-15.6 0,-9.4 6.2,-15.8 6.2,-6.4 15.6,-6.4 9.4,0 15.4,6.4 6.2,6.4 6.2,15.8 0,9.2 -6.2,15.6 -6,6.4 -15.4,6.4 z"
       id="path2" />
  </g>
</svg>
